<svg width="64.73mm" height="64.73mm" version="1.1" viewBox="0 0 64.73 64.73" xmlns="http://www.w3.org/2000/svg">
 <g transform="translate(-113.53 24.139)">
  <g transform="translate(-231.39 -218.89)">
   <g transform="translate(73.232 2.1382)">
    <g transform="translate(60.476 -3.7798)">
     <g transform="translate(286.12 247.36)">
      <rect x="-74.901" y="-50.97" width="64.73" height="64.73" style="fill:none;paint-order:stroke fill markers"/>
     </g>
     <g transform="translate(113.39 -113.39)">
      <g transform="translate(-160.64 -44.223)">
       <g transform="matrix(.78243 0 0 .77386 59.136 84.753)" style="stroke-width:1.2851">
        <path transform="matrix(.33816 0 0 .3419 254.76 347.93)" d="m142.18 35.539a5.0281 4.9731 0 0 0-3.5234 1.4746l-83.137 83.135a5.0281 4.9731 0 0 0-1.3066 4.6894l12.373 49.539a5.0281 4.9731 0 0 0 3.6504 3.6289l49.539 12.367a5.0281 4.9731 0 0 0 4.8047-1.3203l48.648-48.654a5.0281 4.9731 0 1 0-7.1504-6.9922l-46.627 46.633-43.826-10.945-10.975-43.936 77.58-77.576 23.732 23.734a5.0281 4.9731 0 1 0 7.1504-6.9922l-27.312-27.311a5.0281 4.9731 0 0 0-3.6211-1.4746zm48.537 35.496c-8.5078 0-16.27 3.4674-21.859 9.0566-2.3381 2.3381-4.2977 5.0608-5.7949 8.0547a5.0281 4.9731 0 0 0-2.6094-0.62305 5.0281 4.9731 0 0 0-3.4473 1.5195l-35.111 35.115a5.0281 4.9731 0 1 0 7.1504 6.9922l30.797-30.795c-0.02704 0.52813-0.04102 1.0594-0.04102 1.5938 0 8.5078 3.4674 16.276 9.0566 21.865 5.5892 5.5892 13.352 9.0586 21.859 9.0586 6.6801 0 12.564-2.5913 17.635-6.2148l21.076 21.082 7.0703-7.0723-21.074-21.082c3.6236-5.0704 6.207-10.957 6.207-17.637 0-8.5078-3.4596-16.268-9.0488-21.857-5.5892-5.5892-13.357-9.0566-21.865-9.0566zm-39.938 6.8105a5.0281 4.9731 0 0 0-3.4492 1.5254l-35.111 35.109a5.0297 4.9746 0 1 0 7.1523 6.998l35.109-35.115a5.0281 4.9731 0 0 0-3.7012-8.5176zm39.938 3.1914c5.8057 0 11.002 2.3361 14.793 6.127 3.7909 3.7908 6.127 8.9795 6.127 14.785 0 5.8056-2.3361 11.004-6.127 14.795-3.7908 3.7909-8.9873 6.127-14.793 6.127-5.8056 0-11.004-2.3361-14.795-6.127-3.7908-3.7908-6.127-8.9893-6.127-14.795 0-5.8057 2.3361-10.994 6.127-14.785 3.7908-3.7909 8.9893-6.127 14.795-6.127zm-97.967 54.975c-4.126 0.02047-8.2559 1.5898-11.361 4.6953-6.2109 6.2108-6.2858 16.355-0.080078 22.561 6.2056 6.2056 16.498 6.125 22.709-0.08594 5.7314-5.7313 5.9937-14.688 1.1621-20.932a5.0281 4.9731 0 0 0-1.0742-1.627c-3.1028-3.1028-7.2295-4.6321-11.355-4.6113zm0.029297 9.8594c1.5067-0.00877 3.0047 0.57695 4.1758 1.748 2.3422 2.3422 2.3457 6.1388-0.085937 8.5703-2.4316 2.4316-6.0738 2.4281-8.416 0.08594-2.3422-2.3422-2.3457-6.1388 0.085937-8.5703 1.2158-1.2158 2.7335-1.8237 4.2402-1.834z" style="color-rendering:auto;color:#000000;dominant-baseline:auto;fill-rule:evenodd;fill:#f5f5f5;font-feature-settings:normal;font-variant-alternates:normal;font-variant-caps:normal;font-variant-ligatures:normal;font-variant-numeric:normal;font-variant-position:normal;image-rendering:auto;isolation:auto;mix-blend-mode:normal;paint-order:stroke fill markers;shape-padding:0;shape-rendering:auto;solid-color:#000000;text-decoration-color:#000000;text-decoration-line:none;text-decoration-style:solid;text-indent:0;text-orientation:mixed;text-transform:none;white-space:normal"/>
       </g>
      </g>
     </g>
    </g>
   </g>
  </g>
 </g>
</svg>
