<svg width="64.73mm" height="64.73mm" version="1.1" viewBox="0 0 64.73 64.73" xmlns="http://www.w3.org/2000/svg">
 <g transform="translate(982.6 507.19)">
  <g transform="translate(-1384.2 -563.04)">
   <g transform="translate(182.61 5.0241)">
    <g transform="translate(-87.561 -184.09)">
     <g transform="translate(381.48 285.89)" style="stroke:#000">
      <rect x="-74.901" y="-50.97" width="64.73" height="64.73" style="fill:none;paint-order:stroke fill markers;stroke:none"/>
     </g>
    </g>
   </g>
   <path transform="matrix(.26458 0 0 .26458 41.851 30.956)" d="m1500.9 140.03a5.0005 5.0005 0 0 0-1.9336 0.34766h-72.889a5.0005 5.0005 0 0 0-5.0059 4.998v142.4a5.0005 5.0005 0 0 0 5.0059 4.998h58.398a5.002 5.002 0 1 0 0-10.004h-53.4v-132.39h64.621l0.9219 33.574a5.0005 5.0005 0 0 0 4.9375 4.8633l31.256 0.37696v42.275a5.0012 5.0012 0 0 0 10.002 0v-45.693a5.0005 5.0005 0 0 0-1.1152-5.2774l-37.248-38.873a5.0005 5.0005 0 0 0-3.5508-1.5957zm4.998 17.555 20.625 21.533-20.043-0.24414zm-51.193 44.912a5.0005 5.0005 0 1 0-0.024 9.9941l53.732 0.14063a5.0013 5.0013 0 1 0 0.024-10.002zm0 15.133a5.0005 5.0005 0 1 0-0.024 9.9941l53.732 0.14063a5.0012 5.0012 0 1 0 0.024-10.002zm0 15.436a5.0005 5.0005 0 1 0-0.024 9.9941l53.732 0.14062a5.0013 5.0013 0 1 0 0.024-10.002zm45.281 14.654-7.0723 7.0644 24.551 24.551 0.1699-0.16992 0.17 0.16992 6.7285-6.7285-0.1719-0.17383 0.1738-0.17188zm24.549 24.541 0.1719 0.17188-0.1738 0.17383 6.7285 6.7285 0.1699-0.16992 0.1699 0.16992 24.553-24.551-7.0723-7.0644zm7.0664 7.0742-0.1699 0.16992-0.1699-0.16992-6.7285 6.7227 0.1738 0.17187-0.1719 0.17383 24.547 24.549 7.0723-7.0723zm-7.0664 7.0684-0.1738-0.17383 0.1719-0.17187-6.7285-6.7227-0.17 0.16992-0.1699-0.16992-24.551 24.545 7.0723 7.0723z" style="color-rendering:auto;color:#000000;dominant-baseline:auto;fill-rule:evenodd;fill:#fff;font-feature-settings:normal;font-variant-alternates:normal;font-variant-caps:normal;font-variant-ligatures:normal;font-variant-numeric:normal;font-variant-position:normal;image-rendering:auto;isolation:auto;mix-blend-mode:normal;paint-order:stroke fill markers;shape-padding:0;shape-rendering:auto;solid-color:#000000;text-decoration-color:#000000;text-decoration-line:none;text-decoration-style:solid;text-indent:0;text-orientation:mixed;text-transform:none;white-space:normal"/>
  </g>
 </g>
</svg>
